<?xml version="1.0" encoding="iso-8859-1"?>
<!-- Uploaded to: SVG Repo, www.svgrepo.com, Generator: SVG Repo Mixer Tools -->
<svg fill="#000000" version="1.1" id="Layer_1" xmlns="http://www.w3.org/2000/svg" xmlns:xlink="http://www.w3.org/1999/xlink" 
	 viewBox="0 0 496 496" xml:space="preserve">
<g>
	<g>
		<g>
			<path d="M496,16V0H304h-8H64v88H48H0v240h64v88h32.408c4.056,44.784,41.768,80,87.592,80c45.824,0,83.536-35.216,87.592-80H296h8
				h16.408c4.056,44.784,41.768,80,87.592,80c48.52,0,88-39.48,88-88c0-48.52-39.48-88-88-88c-45.824,0-83.536,35.216-87.592,80H304
				V256h16v-16h-16V120h192v-16H304V16H496z M64,104h32v80H64V104z M16,312V104h32v96h64v-96h32v208H16z M184,480
				c-36.992,0-67.536-28.056-71.528-64h32.336c3.72,18.232,19.872,32,39.192,32s35.472-13.768,39.192-32h32.336
				C251.536,451.944,220.992,480,184,480z M161.472,416h45.048c-3.312,9.288-12.112,16-22.528,16S164.784,425.288,161.472,416z
				 M288,400H80v-72h208V400z M288,312H160V104h128V312z M288,88H112H80V16h208V88z M408,336c39.696,0,72,32.296,72,72
				c0,39.704-32.304,72-72,72s-72-32.296-72-72C336,368.296,368.304,336,408,336z"/>
			<path d="M408,448c22.056,0,40-17.944,40-40c0-22.056-17.944-40-40-40c-22.056,0-40,17.944-40,40C368,430.056,385.944,448,408,448
				z M408,384c13.232,0,24,10.768,24,24s-10.768,24-24,24s-24-10.768-24-24S394.768,384,408,384z"/>
			<rect x="336" y="240" width="160" height="16"/>
			<rect x="176" y="280" width="16" height="16"/>
			<rect x="208" y="280" width="16" height="16"/>
			<rect x="240" y="280" width="16" height="16"/>
			<rect x="208" y="248" width="16" height="16"/>
			<rect x="176" y="248" width="16" height="16"/>
			<rect x="176" y="216" width="16" height="16"/>
		</g>
	</g>
</g>
</svg>